<?xml version="1.0" encoding="utf-8"?>
<!-- Generator: Adobe Illustrator 25.1.0, SVG Export Plug-In . SVG Version: 6.00 Build 0)  -->
<svg version="1.1" id="Layer_1" xmlns="http://www.w3.org/2000/svg" xmlns:xlink="http://www.w3.org/1999/xlink" x="0px" y="0px"
	 viewBox="0 0 100 100" style="enable-background:new 0 0 100 100;" xml:space="preserve">
<style type="text/css">
	.st0{display:none;}
	.st1{display:inline;}
	.st2{display:inline;fill:none;stroke:#FFFFFF;stroke-miterlimit:10;}
	.st3{display:inline;fill:none;}
	.st4{display:inline;stroke:#FFFFFF;stroke-miterlimit:10;}
</style>
<g class="st0">
	<rect x="-192" class="st1" width="185" height="99"/>
	<rect y="-36" class="st1" width="100" height="30"/>
	<text transform="matrix(1 0 0 1 66 -19.5)" class="st1" style="font-family:'ArialMT'; font-size:2.4px;">http://thenounproject.com</text>
	<text transform="matrix(1 0 0 1 7.166 -24.5)" class="st1" style="font-family:'ArialMT'; font-size:6.1578px;">The Noun Project</text>
	<text transform="matrix(1 0 0 1 8.286 -19.7)" class="st1" style="font-family:'ArialMT'; font-size:4px;">Icon Template</text>
	<text transform="matrix(1 0 0 1 -178.5 10.5)" class="st1" style="font-family:'ArialMT'; font-size:6.1578px;">Reminders</text>
	<line class="st2" x1="8" y1="-14.5" x2="18" y2="-14.5"/>
	<line class="st2" x1="-179" y1="16.5" x2="-162" y2="16.5"/>
	<g class="st1">
		<g>
			<g>
				<rect x="-170.8" y="31.3" width="8.7" height="8.6"/>
				<path d="M-164.5,42.3h4.7v-4.7h-4.7V42.3z M-159.3,42.7h-5.6v-5.6h5.6V42.7L-159.3,42.7z M-166.2,44.1h8.3v-8.2h-8.3V44.1
					L-166.2,44.1z M-157.5,44.5h-9.2v-9.1h9.2V44.5L-157.5,44.5z"/>
				<polygon points="-166.1,44.1 -166.3,44 -158,35.8 -157.9,35.9 				"/>
			</g>
		</g>
	</g>
	<rect x="-179" y="58" class="st3" width="35" height="32.5"/>
	<text transform="matrix(1 0 0 1 -179 60.1299)" class="st1" style="font-family:'ArialMT'; font-size:3px;">Strokes</text>
	<text transform="matrix(1 0 0 1 -179 65.1299)" class="st1" style="font-family:'ArialMT'; font-size:2.4px;">Try to keep strokes at 4px</text>
	<text transform="matrix(1 0 0 1 -179 70.1299)" class="st1" style="font-family:'ArialMT'; font-size:2.4px;">Minimum stroke weight is 2px</text>
	<text transform="matrix(1 0 0 1 -179 74.6299)" class="st1" style="font-family:'ArialMT'; font-size:2.4px;">For thicker strokes use even </text>
	<text transform="matrix(1 0 0 1 -179 77.6299)" class="st1" style="font-family:'ArialMT'; font-size:2.4px;">numbers: 6px, 8px etc.</text>
	<text transform="matrix(1 0 0 1 -179 82.1299)" class="st1" style="font-family:'ArialMT'; font-size:2.4px;">Remember to expand strokes </text>
	<text transform="matrix(1 0 0 1 -179 85.1299)" class="st1" style="font-family:'ArialMT'; font-size:2.4px;">before saving as an SVG </text>
	<rect x="-136.5" y="58" class="st3" width="35" height="32.5"/>
	<text transform="matrix(1 0 0 1 -136.5 60.1299)" class="st1" style="font-family:'ArialMT'; font-size:3px;">Size</text>
	<text transform="matrix(1 0 0 1 -136.5 65.1299)" class="st1" style="font-family:'ArialMT'; font-size:2.4px;">Cannot be wider or taller than </text>
	<text transform="matrix(1 0 0 1 -136.5 68.6299)" class="st1" style="font-family:'ArialMT'; font-size:2.4px;">100px (artboard size)</text>
	<text transform="matrix(1 0 0 1 -136.5 73.6299)" class="st1" style="font-family:'ArialMT'; font-size:2.4px;">Scale your icon to fill as much of </text>
	<text transform="matrix(1 0 0 1 -136.5 76.6299)" class="st1" style="font-family:'ArialMT'; font-size:2.4px;">the artboard as possible</text>
	<rect x="-94" y="58" class="st3" width="35" height="32.5"/>
	<text transform="matrix(1 0 0 1 -94 60.1299)" class="st1" style="font-family:'ArialMT'; font-size:3px;">Ungroup</text>
	<text transform="matrix(1 0 0 1 -94 65.1299)" class="st1" style="font-family:'ArialMT'; font-size:2.4px;">If your design has more than one </text>
	<text transform="matrix(1 0 0 1 -94 68.1299)" class="st1" style="font-family:'ArialMT'; font-size:2.4px;">shape, make sure to ungroup</text>
	<rect x="-50" y="58" class="st3" width="35" height="32.5"/>
	<text transform="matrix(1 0 0 1 -50 60.1299)" class="st1" style="font-family:'ArialMT'; font-size:3px;">Save as</text>
	<text transform="matrix(1 0 0 1 -50 65.1299)" class="st1" style="font-family:'ArialMT'; font-size:2.4px;">Save as .SVG and make sure “Use </text>
	<text transform="matrix(1 0 0 1 -50 68.1299)" class="st1" style="font-family:'ArialMT'; font-size:2.4px;">Artboards” is checked</text>
	<text transform="matrix(1.0074 0 0 1 -125.542 30.5933)" class="st1" style="font-family:'ArialMT'; font-size:2.5731px;">100px</text>
	<text transform="matrix(1.0074 0 0 1 -41 39)" class="st1" style="font-family:'ArialMT'; font-size:5.1462px;">.SVG</text>
	<rect x="-126.5" y="34.8" class="st1" width="10.3" height="10.2"/>
	<rect x="-126.5" y="31.8" class="st1" width="0.5" height="2.3"/>
	<rect x="-116.8" y="31.8" class="st1" width="0.5" height="2.3"/>
	<rect x="-127" y="32.3" class="st1" width="11.2" height="0.6"/>
	<g class="st1">
		<rect x="-83.8" y="33.8" width="10.3" height="10.2"/>
		<rect x="-76.8" y="28.7" width="3.3" height="3.3"/>
	</g>
	<rect x="-178.5" y="22.5" class="st4" width="30" height="30"/>
	<rect x="-136.5" y="22.5" class="st4" width="30" height="30"/>
	<rect x="-93.5" y="22.5" class="st4" width="30" height="30"/>
	<rect x="-49.5" y="22.5" class="st4" width="30" height="30"/>
</g>
<g>
	<g>
		<g>
			<path d="M50,0C22.4,0,0,22.4,0,50s22.4,50,50,50s50-22.4,50-50S77.6,0,50,0z M50,90c-22.1,0-40-17.9-40-40c0-22.1,17.9-40,40-40
				c22.1,0,40,17.9,40,40C90,72.1,72.1,90,50,90z"/>
		</g>
	</g>
	<path d="M54,50c0,3.3-2.2,6-5,6l0,0c-2.8,0-5-2.7-5-6V20c0-3.3,2.2-6,5-6l0,0c2.8,0,5,2.7,5,6V50z"/>
	<path d="M47.1,56.2c-2.8-1.8-3.8-5.2-2.3-7.7l0,0c1.6-2.5,5.1-3.1,7.9-1.3L78.2,63c2.8,1.8,3.8,5.2,2.3,7.7l0,0
		c-1.6,2.5-5.1,3.1-7.9,1.3L47.1,56.2z"/>
</g>
</svg>
