<?xml version="1.0" encoding="utf-8"?>
<!-- Generator: Adobe Illustrator 25.1.0, SVG Export Plug-In . SVG Version: 6.00 Build 0)  -->
<svg version="1.1" id="Layer_1" xmlns="http://www.w3.org/2000/svg" xmlns:xlink="http://www.w3.org/1999/xlink" x="0px" y="0px"
	 viewBox="0 0 60 60" style="enable-background:new 0 0 60 60;" xml:space="preserve">
<path d="M30,0C13.5,0,0,13.5,0,30s13.5,30,30,30s30-13.5,30-30S46.5,0,30,0z M54,20h-8.9c-1.1-5.7-3-10.6-5.5-14.2
	C46.1,8.4,51.3,13.6,54,20z M56,30c0,2.1-0.3,4.1-0.7,6h-9.6c0.2-1.9,0.3-3.9,0.3-6s-0.1-4.1-0.3-6h9.6C55.7,25.9,56,27.9,56,30z
	 M4,30c0-2.1,0.3-4.1,0.7-6h9.6c-0.2,1.9-0.3,3.9-0.3,6s0.1,4.1,0.3,6H4.7C4.3,34.1,4,32.1,4,30z M18,30c0-2.1,0.1-4.1,0.3-6H28v12
	h-9.7C18.1,34.1,18,32.1,18,30z M32,4.4c3.8,1.5,7.4,7.2,9.1,15.6H32V4.4z M28,4.4V20h-9.1C20.6,11.6,24.2,5.9,28,4.4z M28,40v15.6
	c-3.8-1.5-7.4-7.2-9.1-15.6H28z M32,55.6V40h9.1C39.4,48.4,35.8,54.1,32,55.6z M32,36V24h9.7c0.2,1.9,0.3,3.9,0.3,6s-0.1,4.1-0.3,6
	H32z M20.4,5.8c-2.5,3.5-4.5,8.4-5.5,14.2H6C8.7,13.5,13.9,8.4,20.4,5.8z M6,40h8.9c1.1,5.8,3,10.6,5.5,14.2
	C13.9,51.6,8.7,46.4,6,40z M39.6,54.2c2.5-3.5,4.5-8.4,5.5-14.2H54C51.3,46.4,46.1,51.6,39.6,54.2z"/>
</svg>
