<svg id="logo-books-express" viewBox="0 0 215 26"><path d="M0,25L3.88,0.49h6.3q4.58,0,6.59,1.33a4.8,4.8,0,0,1,2,4.32,5.75,5.75,0,0,1-1.3,3.92,7,7,0,0,1-3.91,2.07,5.46,5.46,0,0,1,3,1.9,5.25,5.25,0,0,1,1,3.29,7.63,7.63,0,0,1-.72,3.27,7.11,7.11,0,0,1-2,2.58A7.41,7.41,0,0,1,12,24.59,17.42,17.42,0,0,1,7.64,25H0ZM7.54,19.9L7.89,20l0.47,0a2.18,2.18,0,0,0,1.83-.81,3.71,3.71,0,0,0,.63-2.32,2.39,2.39,0,0,0-.57-1.74,2.31,2.31,0,0,0-1.72-.58H8.33ZM9,10l0.28,0H9.8a2.46,2.46,0,0,0,1.8-.65,2.35,2.35,0,0,0,.66-1.76,1.82,1.82,0,0,0-.53-1.42,2.23,2.23,0,0,0-1.55-.48L10,5.7l-0.22,0Z" style="fill:#162b75"></path><path d="M27.16,25.52A6.9,6.9,0,0,1,21.59,23a10.12,10.12,0,0,1-2.11-6.71,25.18,25.18,0,0,1,.88-6.64,17.66,17.66,0,0,1,2.38-5.41,9.91,9.91,0,0,1,3.4-3.16,9.13,9.13,0,0,1,4.41-1,6.92,6.92,0,0,1,5.6,2.48,10.2,10.2,0,0,1,2.07,6.75,25.1,25.1,0,0,1-.87,6.62A18,18,0,0,1,35,21.31a9.57,9.57,0,0,1-3.37,3.15A9.21,9.21,0,0,1,27.16,25.52Zm-0.82-8.67a4.15,4.15,0,0,0,.37,2,1.26,1.26,0,0,0,1.17.63,1.64,1.64,0,0,0,1.25-.57,5.11,5.11,0,0,0,.94-1.83A23,23,0,0,0,31,13.14a30,30,0,0,0,.34-4.4,4.44,4.44,0,0,0-.35-2,1.16,1.16,0,0,0-1.09-.65,1.78,1.78,0,0,0-1.33.56,4.54,4.54,0,0,0-.93,1.81,26,26,0,0,0-.91,4A28.81,28.81,0,0,0,26.34,16.84Z" style="fill:#162b75"></path><path d="M46.58,25.52A6.9,6.9,0,0,1,41,23a10.12,10.12,0,0,1-2.11-6.71,25.18,25.18,0,0,1,.88-6.64,17.66,17.66,0,0,1,2.38-5.41,9.91,9.91,0,0,1,3.4-3.16A9.13,9.13,0,0,1,50,0a6.92,6.92,0,0,1,5.6,2.48,10.2,10.2,0,0,1,2.07,6.75,25.1,25.1,0,0,1-.87,6.62,18,18,0,0,1-2.39,5.43A9.57,9.57,0,0,1,51,24.47,9.21,9.21,0,0,1,46.58,25.52Zm-0.82-8.67a4.15,4.15,0,0,0,.37,2,1.26,1.26,0,0,0,1.17.63,1.64,1.64,0,0,0,1.25-.57,5.11,5.11,0,0,0,.94-1.83,23,23,0,0,0,.89-3.94,30,30,0,0,0,.34-4.4,4.44,4.44,0,0,0-.35-2,1.16,1.16,0,0,0-1.09-.65A1.78,1.78,0,0,0,48,6.63,4.54,4.54,0,0,0,47,8.44a26,26,0,0,0-.91,4A28.81,28.81,0,0,0,45.76,16.84Z" style="fill:#162b75"></path><path d="M57.46,25L61.34,0.49h6.81L66.54,10.74,71.93,0.49h6.94L72.1,11.82,75.17,25H67.78L66.06,13.87,64.29,25H57.46Z" style="fill:#162b75"></path><path d="M76.75,17.48A9.17,9.17,0,0,0,79.14,19a6.27,6.27,0,0,0,2.41.52,2.28,2.28,0,0,0,1.62-.56,2,2,0,0,0,.6-1.54,3.21,3.21,0,0,0-.5-1.67,12.24,12.24,0,0,0-1.94-2.21,12.13,12.13,0,0,1-2.39-3,6.26,6.26,0,0,1-.65-2.86A7.26,7.26,0,0,1,80.5,2.07a8.46,8.46,0,0,1,6-2.07,12.13,12.13,0,0,1,2.93.34,13.62,13.62,0,0,1,2.83,1.07l-1,6a10.16,10.16,0,0,0-2.15-1.18,5.54,5.54,0,0,0-2-.4,1.93,1.93,0,0,0-1.35.45,1.56,1.56,0,0,0-.49,1.22q0,1,1.89,2.92l0.37,0.37A11.77,11.77,0,0,1,90.07,14a7.55,7.55,0,0,1,.6,3.11,8.1,8.1,0,0,1-2.42,6.2,9.28,9.28,0,0,1-6.61,2.27,13,13,0,0,1-3.39-.43A8.54,8.54,0,0,1,75.57,24Z" style="fill:#162b75"></path><path d="M99.56,25l3.88-24.54h12.09l-0.94,6h-5.27L108.8,9.56h4.77l-0.89,5.75h-4.77l-0.55,3.38h5.28l-1,6.34H99.56Z" style="fill:#162b75"></path><path d="M120,12.61L116.71,0.49h7.06L124.52,7l2.81-6.51h7.09l-7.09,12.12L131,25h-7.22l-1.1-6.47L119.59,25h-7.22Z" style="fill:#162b75"></path><path d="M132.18,25l3.88-24.54h5.85q4.9,0,7.07,1.62t2.17,5.25q0,4.59-2.58,7.05t-7.38,2.46l-0.46,0-0.46,0L139,25h-6.82ZM142,5.92l-0.85,5.43,0.28,0h0.37a2.68,2.68,0,0,0,2.18-.87,4.06,4.06,0,0,0,.73-2.64,1.8,1.8,0,0,0-.6-1.47,2.71,2.71,0,0,0-1.76-.5H142Z" style="fill:#162b75"></path><path d="M150.58,25l3.88-24.54h5.75q5.42,0,7.47,1.43t2,4.87a8.7,8.7,0,0,1-1.3,4.94,6.14,6.14,0,0,1-3.74,2.56l3,10.74h-7.22l-1.54-9.92L157.4,25h-6.82Zm9-13.6h0.37a3,3,0,0,0,2.39-1,4.25,4.25,0,0,0,.84-2.83,2.06,2.06,0,0,0-.54-1.56,2.35,2.35,0,0,0-1.66-.5l-0.23,0-0.26,0Z" style="fill:#162b75"></path><path d="M169,25l3.88-24.54H185l-0.94,6h-5.27l-0.52,3.13H183l-0.89,5.75h-4.77l-0.55,3.38h5.28l-1,6.34H169Z" style="fill:#162b75"></path><path d="M183.94,17.48A9.17,9.17,0,0,0,186.34,19a6.27,6.27,0,0,0,2.41.52,2.28,2.28,0,0,0,1.62-.56,2,2,0,0,0,.6-1.54,3.21,3.21,0,0,0-.5-1.67,12.26,12.26,0,0,0-1.94-2.21,12.15,12.15,0,0,1-2.39-3,6.26,6.26,0,0,1-.65-2.86,7.26,7.26,0,0,1,2.22-5.58,8.46,8.46,0,0,1,6-2.07,12.13,12.13,0,0,1,2.93.34,13.62,13.62,0,0,1,2.83,1.07l-1,6a10.16,10.16,0,0,0-2.15-1.18,5.54,5.54,0,0,0-2-.4,1.93,1.93,0,0,0-1.35.45,1.56,1.56,0,0,0-.49,1.22q0,1,1.89,2.92l0.37,0.37A11.77,11.77,0,0,1,197.27,14a7.54,7.54,0,0,1,.6,3.11,8.1,8.1,0,0,1-2.42,6.2,9.28,9.28,0,0,1-6.61,2.27,13,13,0,0,1-3.39-.43A8.54,8.54,0,0,1,182.77,24Z" style="fill:#162b75"></path><path d="M199.48,17.48A9.17,9.17,0,0,0,201.87,19a6.27,6.27,0,0,0,2.41.52,2.28,2.28,0,0,0,1.62-.56,2,2,0,0,0,.6-1.54,3.21,3.21,0,0,0-.5-1.67,12.26,12.26,0,0,0-1.94-2.21,12.15,12.15,0,0,1-2.39-3A6.26,6.26,0,0,1,201,7.65a7.26,7.26,0,0,1,2.22-5.58,8.46,8.46,0,0,1,6-2.07,12.13,12.13,0,0,1,2.93.34A13.62,13.62,0,0,1,215,1.41l-1,6a10.16,10.16,0,0,0-2.15-1.18,5.54,5.54,0,0,0-2-.4,1.93,1.93,0,0,0-1.35.45A1.56,1.56,0,0,0,208,7.48q0,1,1.89,2.92l0.37,0.37A11.77,11.77,0,0,1,212.81,14a7.54,7.54,0,0,1,.6,3.11,8.1,8.1,0,0,1-2.42,6.2,9.28,9.28,0,0,1-6.61,2.27,13,13,0,0,1-3.39-.43A8.54,8.54,0,0,1,198.31,24Z" style="fill:#162b75"></path></svg>