<?xml version="1.0" encoding="utf-8"?>
<!-- Generator: Adobe Illustrator 25.1.0, SVG Export Plug-In . SVG Version: 6.00 Build 0)  -->
<svg version="1.1" id="Layer_1" xmlns="http://www.w3.org/2000/svg" xmlns:xlink="http://www.w3.org/1999/xlink" x="0px" y="0px"
	 viewBox="0 0 80.3 58.2" style="enable-background:new 0 0 80.3 58.2;" xml:space="preserve">
<path d="M80.2,7.7c-0.1-0.4-0.6-0.7-1-0.5l0,0c-0.2,0.1-0.3,0.4-0.3,0.6c0.3,1.9-1,4.2-3.2,5.4c-0.4,0.2-0.8,0.4-1.2,0.6
	c0-0.5-0.1-1-0.2-1.5s-0.4-1-0.6-1.5c-0.3-0.5-0.6-1-1-1.4c-1.5-1.5-3.7-1.7-5-0.5c-0.6,0.6-0.9,1.5-0.8,2.3
	c0.1,0.9,0.5,1.8,1.1,2.5c0.7,0.7,1.6,1.2,2.5,1.5c0.8,0.2,1.6,0.3,2.4,0.2c-0.2,0.7-0.5,1.3-0.8,1.9c-1,1.6-2.5,2.6-4,2.9
	C63.9,10,51.9,2.7,37.8,2.7c-4.7,0-9.2,0.8-13.3,2.3c-0.4-0.6-0.9-1.3-1.4-1.8C20.2,0.3,11.5,0,11.5,0s0.2,7.7,2.7,11
	c-3.8,3.3-6.5,7.4-7.7,12.1H4.1c-2.3,0-4.1,1.8-4.1,4.1v7c0,2.3,1.8,4.2,4.1,4.2h4.4c1.3,2.4,3,4.5,5,6.4l-1,2.7
	c-1.2,3.3,0.5,6.9,3.8,8.1l6,2.2c3.3,1.2,6.9-0.5,8.1-3.8l0.3-1c2.2,0.4,4.5,0.6,6.9,0.6c2.8,0,5.5-0.3,8.1-0.8l0.4,1.2
	c1.2,3.3,4.8,5,8.1,3.8l6-2.2c3.3-1.2,5-4.8,3.8-8.1l-1.3-3.6c4.2-4.3,6.7-9.8,6.7-15.7c0-2.4-0.4-4.6-1.1-6.8
	c1.8-0.4,3.5-1.6,4.6-3.5C73.5,17,73.8,16,74,15c0.7-0.2,1.3-0.5,2-0.8C79.1,12.8,80.6,10.1,80.2,7.7z M17.1,23.9
	c-1.4,0-2.5-1.7-2.5-3.8s1.1-3.8,2.5-3.8s2.5,1.7,2.5,3.8S18.5,23.9,17.1,23.9z M50.9,14.7c-3.8-1.9-8.2-2.9-12.9-2.9
	c-1.7,0-3.4,0.1-5,0.4c-1.5,0.2-3-1-3-2.5l0,0c0-1.2,0.9-2.3,2.2-2.5C34.1,6.9,36,6.7,38,6.7c5.5,0,10.7,1.2,15.2,3.4
	c0.9,0.4,1.4,1.3,1.4,2.3C54.6,14.3,52.6,15.6,50.9,14.7z M73.3,14.2c-0.8,0.1-1.6,0.1-2.3-0.1c-0.3-0.1-0.6-0.2-0.9-0.4
	c-0.5-0.3-1-0.6-1.3-1.1c-0.2-0.3-0.4-0.8-0.5-1.3s0.1-1,0.4-1.4c0.6-0.6,1.6-0.5,2.4-0.1c0.5,0.3,1,0.7,1.3,1.2s0.6,1,0.7,1.5
	C73.3,13.1,73.3,13.6,73.3,14.2z"/>
</svg>
