<?xml version="1.0" encoding="utf-8"?>
<!-- Generator: Adobe Illustrator 25.1.0, SVG Export Plug-In . SVG Version: 6.00 Build 0)  -->
<svg version="1.1" id="Layer_1" xmlns="http://www.w3.org/2000/svg" xmlns:xlink="http://www.w3.org/1999/xlink" x="0px" y="0px"
	 viewBox="0 0 95 95" style="enable-background:new 0 0 95 95;" xml:space="preserve">
<style type="text/css">
	.st0{fill:#FBFDFF;}
</style>
<g id="Layer_2_1_">
</g>
<g id="Layer_1_1_">
	<path class="st0" d="M94.1,83.4L70.3,59.5c10.1-15.2,8.1-35.4-4.8-48.3C58.2,4,48.6,0,38.3,0S18.4,4,11.2,11.2
		c-14.9,15-14.9,39.3,0,54.2c12.9,12.9,33.1,14.9,48.3,4.9l23.9,23.9c1.1,1.1,3,1.1,4.1,0l6.6-6.6C95.3,86.4,95.3,84.5,94.1,83.4z
		 M56.7,56.7c-10.1,10.1-26.6,10.1-36.8,0c-10.1-10.1-10.1-26.6,0-36.8C30,9.8,46.5,9.8,56.7,19.9C66.8,30.1,66.8,46.6,56.7,56.7z"
		/>
</g>
</svg>
