<?xml version="1.0" encoding="utf-8"?>
<!-- Generator: Adobe Illustrator 25.1.0, SVG Export Plug-In . SVG Version: 6.00 Build 0)  -->
<svg version="1.1" id="Layer_1" focusable="false" xmlns="http://www.w3.org/2000/svg" xmlns:xlink="http://www.w3.org/1999/xlink"
	 x="0px" y="0px" viewBox="0 0 496 496" style="enable-background:new 0 0 496 496;" xml:space="preserve">
<style type="text/css">
	.st0{fill:#000444;}
</style>
<path class="st0" d="M0,248C0,111,111,0,248,0s248,111,248,248S385,496,248,496S0,385,0,248z M128,280.9l83.3-86.8v210
	c0,15.3,12.3,27.6,27.6,27.6h18.4c15.3,0,27.6-12.3,27.6-27.6v-210l83.3,86.8c10.7,11.2,28.5,11.4,39.4,0.5l12.5-12.6
	c10.8-10.8,10.8-28.3,0-39L267.6,77.1c-10.8-10.8-28.3-10.8-39,0L75.9,229.7c-10.8,10.8-10.8,28.3,0,39l12.5,12.6
	C99.4,292.3,117.3,292,128,280.9z"/>
</svg>
